<svg xmlns="http://www.w3.org/2000/svg" viewBox="0 0 400 400" width="400" height="400"><defs><radialGradient id="purpleGloss" cx="32%" cy="26%" r="80%"><stop offset="0%" stop-color="#9A4CFF"/><stop offset="55%" stop-color="#7A1FE0"/><stop offset="100%" stop-color="#4A0FA0"/></radialGradient><linearGradient id="purpleFace" x1="0%" y1="0%" x2="100%" y2="100%"><stop offset="0%" stop-color="#9A4CFF"/><stop offset="100%" stop-color="#7A1FE0"/></linearGradient><radialGradient id="limeGloss" cx="32%" cy="26%" r="80%"><stop offset="0%" stop-color="#E3FF66"/><stop offset="55%" stop-color="#C6F000"/><stop offset="100%" stop-color="#8FBF00"/></radialGradient><filter id="softShadow" x="-60%" y="-60%" width="220%" height="220%"><feDropShadow dx="0" dy="14" stdDeviation="16" flood-color="#33086E" flood-opacity="0.45"/></filter><filter id="innerBlurSmall" x="-50%" y="-50%" width="200%" height="200%"><feGaussianBlur stdDeviation="6"/></filter></defs><g filter="url(#softShadow)"><rect x="130" y="55" width="140" height="290" rx="34" fill="url(#purpleGloss)"/><rect x="130" y="55" width="140" height="290" rx="34" fill="none" stroke="#9A4CFF" stroke-opacity="0.55" stroke-width="3"/><rect x="146" y="78" width="108" height="244" rx="18" fill="#4A0FA0"/><rect x="146" y="78" width="108" height="244" rx="18" fill="url(#purpleFace)" opacity="0.35"/><rect x="182" y="66" width="36" height="8" rx="4" fill="#33086E" opacity="0.7"/><circle cx="200" cy="176" r="20" fill="url(#limeGloss)"/><path d="M162 246 c0 -30 26 -46 38 -46 s38 16 38 46 z" fill="url(#limeGloss)"/><ellipse cx="168" cy="90" rx="30" ry="16" fill="#FFFFFF" opacity="0.5" filter="url(#innerBlurSmall)"/><ellipse cx="232" cy="300" rx="30" ry="46" fill="#33086E" opacity="0.35" filter="url(#innerBlurSmall)"/></g></svg>